<svg xmlns="http://www.w3.org/2000/svg" viewBox="0 0 80 80" width="80" height="80">
	<style>
		tspan { white-space:pre }
		.shp0 { fill: #608126 } 
		.shp1 { fill: #181d23 } 
		.shp2 { fill: #ffffff } 
	</style>
	<path id="Forma 1" class="shp0" d="M40 80C17.88 80 0 62.12 0 40C0 17.88 17.88 0 40 0C62.12 0 80 17.88 80 40C80 62.12 62.12 80 40 80Z" />
	<path id="Forma 2" class="shp1" d="M40 59.07C29.45 59.07 20.93 50.55 20.93 40C20.93 29.45 29.45 20.93 40 20.93C50.55 20.93 59.07 29.45 59.07 40C59.07 50.55 50.55 59.07 40 59.07Z" />
	<path id="Forma 3" class="shp2" d="M52.66 35.32C48.42 35.32 45 31.89 45 27.66C45 23.42 48.42 20 52.66 20C56.89 20 60.32 23.42 60.32 27.66C60.32 31.89 56.89 35.32 52.66 35.32Z" />
</svg>