<svg xmlns="http://www.w3.org/2000/svg" viewBox="0 0 31 31">
	<g fill="currentColor" transform="translate(2)">
		<path d="M 11.755859,0.24023438 V 1.2402344 24.8125 c 0,1.901734 -0.485086,2.94301 -1.320312,3.521484 -0.8352266,0.578475 -2.2875745,0.789229 -4.4804689,0.345703 L 4.9746094,28.482422 4.578125,30.443359 5.5585937,30.640625 c 2.4737681,0.500334 4.5194733,0.375472 6.0175783,-0.662109 1.498104,-1.037581 2.179687,-2.891781 2.179687,-5.166016 V 1.2402344 0.24023438 Z"/>
		<path d="M 16.089844,0.24023438 V 1.2402344 24.800781 c 0,1.474936 -0.320703,2.455943 -0.824219,3.064453 -0.503516,0.608511 -1.233269,0.963293 -2.447266,1.03125 -0.466642,0.02612 -1.629841,0.03387 -3.3828121,0.01172 l -1,-0.01367 -0.025391,2 1,0.01367 c 1.7670257,0.02233 2.9047087,0.02075 3.5195317,-0.01367 1.596378,-0.08936 2.975281,-0.664214 3.876953,-1.753906 0.901671,-1.089692 1.283203,-2.575694 1.283203,-4.339844 V 1.2402344 0.24023438 Z" opacity="0.7" />
		<path d="M 20.421875,0.24023438 V 1.2402344 24.800781 c 0,1.471991 -0.323166,2.448952 -0.837891,3.058594 -0.514724,0.609642 -1.271186,0.968731 -2.517578,1.037109 -0.365233,0.02004 -3.393433,0.03395 -8.6386716,0.01172 l -1,-0.0059 -0.00977,2 1.0000001,0.0059 c 5.2493822,0.02225 8.0195602,0.02683 8.7578122,-0.01367 1.621213,-0.08894 3.016469,-0.657533 3.935547,-1.746094 0.919078,-1.08856 1.310547,-2.580561 1.310547,-4.347656 V 1.2402344 0.24023438 Z" opacity="0.5"/>
		<path d="M 8.421875,0.07617187 V 2.0761719 h 1 12 1 V 0.07617187 h -1 -12 z"/>
	</g>
</svg>
