<?xml version="1.0" encoding="UTF-8"?>
<svg width="569" height="201" fill="none" version="1.1" viewBox="0 0 569 201" xmlns="http://www.w3.org/2000/svg">
 <g stroke="#fff" stroke-linecap="square" stroke-width="14.356">
  <path d="m9.6382 188.59s43.067 8.808 43.067-30.159v-146.64"/>
  <path d="m32.198 190.12s16.242.208 21.233-.075c17.291-.978 25.936-11.543 25.936-31.692v-146.57" opacity=".7"/>
  <path d="m26.045 190.12s48.426.208 53.518-.075c17.643-.978 26.464-11.543 26.464-31.692v-146.57" opacity=".5"/>
  <path d="m32.198 10.766h73.829"/>
 </g>
 <path id="JEO theme" d="m174.41 138.39c-1.469 0-2.751-.094-3.846-.281-1.121-.16-2.083-.387-2.884-.681v-8.051c.855.214 1.776.401 2.764.561s2.043.24 3.164.24c1.469 0 2.804-.28 4.006-.841s2.15-1.575 2.844-3.044c.721-1.469 1.081-3.538 1.081-6.209v-56.557h9.614v56.237c0 4.353-.695 7.891-2.083 10.614-1.389 2.751-3.338 4.767-5.848 6.049-2.51 1.308-5.448 1.963-8.812 1.963zm60.947-16.303h-33.165v-58.56h33.165v8.0911h-23.552v15.902h22.07v8.051h-22.07v18.385h23.552zm60.548-29.36c0 4.5129-.575 8.6252-1.723 12.337-1.121 3.6851-2.817 6.8628-5.087 9.5331-2.27 2.6432-5.114 4.6862-8.532 6.1282s-7.423 2.163-12.016 2.163c-4.673 0-8.732-.721-12.177-2.163-3.418-1.442-6.262-3.498-8.532-6.1683-2.243-2.6703-3.925-5.8614-5.046-9.5731-1.122-3.7118-1.683-7.8241-1.683-12.337 0-6.0349.988-11.296 2.964-15.782 2.003-4.5129 5.034-8.011 9.093-10.494 4.085-2.5101 9.239-3.7652 15.461-3.7652 6.088 0 11.149 1.2417 15.181 3.7251s7.05 5.9816 9.052 10.494c2.03 4.4861 3.045 9.7868 3.045 15.902zm-44.702 0c0 4.5129.614 8.4249 1.843 11.736 1.228 3.2845 3.111 5.8213 5.647 7.6104 2.564 1.7624 5.848 2.6437 9.854 2.6437 4.032 0 7.317-.8813 9.853-2.6437 2.537-1.7891 4.407-4.3259 5.608-7.6104 1.202-3.3113 1.803-7.2233 1.803-11.736 0-6.8627-1.376-12.23-4.126-16.102-2.724-3.8987-7.076-5.8481-13.058-5.8481-4.005 0-7.303.8813-9.894 2.6437-2.563 1.7624-4.459 4.2859-5.687 7.5704-1.229 3.2578-1.843 7.1698-1.843 11.736zm96.3 29.36-21.509-54.074h-.2c.053.9881.093 2.0295.12 3.1243.053 1.0682.093 2.1897.12 3.3647.027 1.1749.04 2.4033.04 3.685v43.9h-3.925v-58.56h6.248l20.749 52.152h.24l20.909-52.152h6.088v58.56h-4.045v-44.381c0-1.0415.013-2.1096.04-3.2044.026-1.0949.053-2.1764.08-3.2445.053-1.0948.107-2.1496.16-3.1643h-.24l-21.59 53.994zm78.012 0-7.971-20.708h-24.594l-8.131 20.708h-4.206l23.032-58.761h3.765l22.431 58.761zm-9.293-24.434-8.091-21.95c-.214-.5608-.481-1.2817-.801-2.163-.294-.8812-.614-1.8158-.962-2.8038-.32-.988-.64-1.9227-.961-2.8039-.267.9347-.561 1.8693-.881 2.8039-.321.9346-.628 1.8425-.921 2.7237-.294.8545-.574 1.6289-.842 2.3232l-8.411 21.87zm32.188-34.127c6.97 0 12.19 1.3351 15.662 4.0055 3.471 2.6703 5.207 6.8227 5.207 12.457 0 2.884-.467 5.4475-1.402 7.6906-.908 2.2164-2.283 4.0856-4.126 5.6077-1.842 1.5221-4.152 2.6703-6.929 3.4447-2.751.7744-5.968 1.1616-9.653 1.1616h-9.013v24.193h-4.126v-58.56zm-.44 3.645h-9.814v27.077h8.612c3.792 0 7.05-.4272 9.773-1.2817 2.724-.8813 4.82-2.3499 6.289-4.4061s2.203-4.86 2.203-8.4116c0-4.5128-1.388-7.7974-4.166-9.8535-2.777-2.0829-7.076-3.1243-12.897-3.1243zm62.189 39.815c0 3.4982-.881 6.4355-2.644 8.8121-1.762 2.3496-4.152 4.1256-7.169 5.3276-3.018 1.175-6.436 1.762-10.254 1.762-2.377 0-4.54-.12-6.489-.36-1.923-.214-3.672-.508-5.248-.882-1.548-.373-2.964-.801-4.245-1.281v-4.126c2.082.801 4.486 1.509 7.209 2.123 2.751.587 5.742.881 8.973.881 3.044 0 5.741-.44 8.091-1.322 2.377-.881 4.246-2.216 5.608-4.0051 1.362-1.7892 2.042-4.0456 2.042-6.7693 0-2.4034-.574-4.3661-1.722-5.8881-1.121-1.5488-2.817-2.8707-5.087-3.9655-2.27-1.1215-5.127-2.2564-8.572-3.4047-2.403-.8278-4.593-1.6956-6.569-2.6036-1.949-.9346-3.618-2.0027-5.007-3.2044-1.388-1.2283-2.456-2.697-3.204-4.406-.721-1.7357-1.082-3.7785-1.082-6.1284 0-3.2312.815-5.9415 2.444-8.1312 1.655-2.2164 3.885-3.8854 6.689-5.0069 2.831-1.1483 6.008-1.7224 9.533-1.7224 2.804 0 5.461.2671 7.971.8011 2.537.5074 4.98 1.2818 7.33 2.3232l-1.442 3.5649c-2.35-1.0147-4.7-1.7624-7.049-2.2431-2.35-.4806-4.674-.721-6.97-.721-2.751 0-5.207.4139-7.37 1.2418-2.136.8011-3.832 2.0161-5.087 3.645s-1.883 3.685-1.883 6.1684c0 2.5636.574 4.6331 1.723 6.2086 1.175 1.5755 2.83 2.8839 4.966 3.9254 2.163 1.0414 4.714 2.0561 7.651 3.0442 3.471 1.1749 6.462 2.4166 8.972 3.7251 2.51 1.2817 4.446 2.9107 5.808 4.8867 1.389 1.9761 2.083 4.5529 2.083 7.7306z" fill="#fff"/>
</svg>
